<?xml version="1.0" encoding="UTF-8"?>
<svg width="64px" height="64px" viewBox="0 0 64 64" version="1.1" xmlns="http://www.w3.org/2000/svg" xmlns:xlink="http://www.w3.org/1999/xlink">
    <!-- Generator: Sketch 41.2 (35397) - http://www.bohemiancoding.com/sketch -->
    <title>BarrelSide</title>
    <desc>Created with Sketch.</desc>
    <defs></defs>
    <g id="Page-1" stroke="none" stroke-width="1" fill="none" fill-rule="evenodd">
        <g id="BarrelSide" stroke="#FFFFFF" stroke-width="2">
            <g id="Page-1" transform="translate(9.000000, 13.000000)">
                <path d="M14,35.5762 C16.56,35.8502 20.232,35.9972 22.981,36.0002 C25.744,36.0032 29.429,35.8592 32,35.5882 L14,35.5762 Z" id="Stroke-1"></path>
                <path d="M10,3.127 C6.29,3.803 2.912,4.76 0,5.939 L0,32.029 C2.912,33.211 6.29,34.174 10,34.855" id="Stroke-3"></path>
                <path d="M31.9995,2.4238 C29.4405,2.1498 25.7675,2.0028 23.0185,1.9998 C20.2565,1.9968 16.5715,2.1408 14.0005,2.4118" id="Stroke-5"></path>
                <path d="M36,34.873 C39.71,34.197 43.088,33.24 46,32.061 L46,5.972 C43.089,4.789 39.71,3.827 36,3.145" id="Stroke-7"></path>
                <path d="M14,25.8262 C16.565,25.9372 20.242,25.9982 22.991,26.0002 C25.75,26.0022 29.432,25.9462 32,25.8392" id="Stroke-9"></path>
                <path d="M10.0005,12.4443 C6.2755,12.7143 2.8905,13.0973 0.0005,13.5703 L0.0005,24.3933 C2.8915,24.8713 6.2765,25.2593 10.0005,25.5353" id="Stroke-11"></path>
                <path d="M32,12.1738 C29.437,12.0628 25.761,12.0018 23.009,11.9998 C20.254,11.9978 16.57,12.0538 14,12.1608" id="Stroke-13"></path>
                <path d="M36.0005,25.5537 C39.7095,25.2837 43.0885,24.9017 46.0005,24.4297 L46.0005,13.6067 C43.0885,13.1297 39.7095,12.7417 35.9995,12.4667" id="Stroke-15"></path>
                <path d="M10,1 L10,37" id="Line" stroke-linecap="square"></path>
                <path d="M14,1 L14,37" id="Line" stroke-linecap="square"></path>
                <path d="M10.5,1 L13,1" id="Line" stroke-linecap="square"></path>
                <path d="M10.5,37 L13,37" id="Line" stroke-linecap="square"></path>
                <path d="M32,1 L32,37" id="Line" stroke-linecap="square"></path>
                <path d="M36,1 L36,37" id="Line" stroke-linecap="square"></path>
                <path d="M32.5,1 L35,1" id="Line" stroke-linecap="square"></path>
                <path d="M32.5,37 L35,37" id="Line" stroke-linecap="square"></path>
            </g>
        </g>
    </g>
</svg>