<?xml version="1.0" encoding="UTF-8"?>
<svg width="64px" height="64px" viewBox="0 0 64 64" version="1.1" xmlns="http://www.w3.org/2000/svg" xmlns:xlink="http://www.w3.org/1999/xlink">
    <!-- Generator: Sketch 41.2 (35397) - http://www.bohemiancoding.com/sketch -->
    <title>Bottle</title>
    <desc>Created with Sketch.</desc>
    <defs></defs>
    <g id="Page-1" stroke="none" stroke-width="1" fill="none" fill-rule="evenodd">
        <g id="Bottle" stroke="#FFFFFF" stroke-width="2">
            <g id="Page-1" transform="translate(23.000000, 9.000000)">
                <path d="M9,0 C11,0 13,0.36 13,1 L13,2 C13,2.491 14,3.534 14,4 C14,4.509 13,5.383 13,6 C13,6.244 14,12.583 14,16 C14,17.874 18,20.406 18,24 L18,43.999 C18,45.103 17.108,45.999 16.004,45.999 C13.744,46 10.218,46.001 9,45.998 L2,45.998 C0.896,45.998 0,45.103 0,43.998 L0,24 C0,20.406 4,17.874 4,16 C4,12.583 5,6.244 5,6 C5,5.383 4,4.509 4,4 C4,3.534 4.904,2.491 5,2 L5,1 C5,0.36 7,0 9,0 Z" id="Stroke-1"></path>
            </g>
            <path d="M24.5,35 L39.5,35" id="Line" stroke-linecap="square"></path>
            <path d="M24.5,47 L39.5,47" id="Line" stroke-linecap="square"></path>
        </g>
    </g>
</svg>