<?xml version="1.0" encoding="UTF-8"?>
<svg width="64px" height="64px" viewBox="0 0 64 64" version="1.1" xmlns="http://www.w3.org/2000/svg" xmlns:xlink="http://www.w3.org/1999/xlink">
    <!-- Generator: Sketch 41.2 (35397) - http://www.bohemiancoding.com/sketch -->
    <title>Can</title>
    <desc>Created with Sketch.</desc>
    <defs></defs>
    <g id="Page-1" stroke="none" stroke-width="1" fill="none" fill-rule="evenodd" stroke-linecap="round">
        <g id="Can" stroke="#FFFFFF" stroke-width="2">
            <g id="Page-1" transform="translate(20.000000, 9.000000)">
                <path d="M24,40 L24,41 L21,44 L21,46 L3,46 L3,44.004 L0,41 L0,40 L24,40 Z M24,10 L0,10 L0,40 L24,40 L24,10 Z M24,10 L24,9 L21,6 L21,4 L3,4 L3,5.996 L0,9 L0,10 L24,10 Z M10,4 L6,4 L6,2 C6,0.896 6.896,0 8,0 C9.104,0 10,0.896 10,2 L10,4 Z" id="Combined-Shape"></path>
            </g>
        </g>
    </g>
</svg>