<?xml version="1.0" encoding="UTF-8"?>
<svg width="64px" height="64px" viewBox="0 0 64 64" version="1.1" xmlns="http://www.w3.org/2000/svg" xmlns:xlink="http://www.w3.org/1999/xlink">
    <!-- Generator: Sketch 41.2 (35397) - http://www.bohemiancoding.com/sketch -->
    <title>Chalice</title>
    <desc>Created with Sketch.</desc>
    <defs></defs>
    <g id="Page-1" stroke="none" stroke-width="1" fill="none" fill-rule="evenodd">
        <g id="Chalice" stroke="#FFFFFF" stroke-width="2">
            <g id="Page-1" transform="translate(18.000000, 9.000000)">
                <path d="M16,13 L16,18.5 C16,19.881 17.119,21 18.5,21 C19.881,21 21,19.881 21,18.5 L21,11 C21,9.969 21.062,9 22,9 L26,9 L26,7 C26,3.962 23.538,2 20.5,2 C20.256,2 20.018,2.021 19.782,2.052 C18.774,0.802 17.231,0 15.5,0 C13.375,0 11.535,1.208 10.619,2.972 C9.732,2.36 8.659,2 7.5,2 C4.462,2 2,3.962 2,7 L2,9 L12,9 C14.281,9 16,10.844 16,13 Z" id="Stroke-1"></path>
                <path d="M11.9985,5.0581 C11.7495,4.2391 11.2615,3.5161 10.6075,2.9801" id="Stroke-3"></path>
                <path d="M26,9 L26,9.964 C26,12.616 28,16.187 28,21.536 C28,29.033 18.419,36 14,36 C9.581,36 0,29.033 0,21.536 C0,15.812 2,12.616 2,9.964 L2,9" id="Stroke-5" stroke-linecap="round"></path>
                <path d="M14,32.0879 C10.872,32.0879 4,27.3069 4,21.9999" id="Stroke-7" stroke-linecap="round"></path>
                <path d="M14,44 L14,36" id="Stroke-9" stroke-linecap="round"></path>
                <path d="M8,46 C8.824,44.835 11.388,44 14,44" id="Stroke-11" stroke-linecap="round"></path>
                <path d="M20,46 C19.176,44.835 16.612,44 14,44" id="Stroke-13" stroke-linecap="round"></path>
            </g>
        </g>
    </g>
</svg>