<?xml version="1.0" encoding="UTF-8"?>
<svg width="64px" height="64px" viewBox="0 0 64 64" version="1.1" xmlns="http://www.w3.org/2000/svg" xmlns:xlink="http://www.w3.org/1999/xlink">
    <!-- Generator: Sketch 41.2 (35397) - http://www.bohemiancoding.com/sketch -->
    <title>Sign</title>
    <desc>Created with Sketch.</desc>
    <defs></defs>
    <g id="Page-1" stroke="none" stroke-width="1" fill="none" fill-rule="evenodd">
        <g id="Sign" stroke="#FFFFFF" stroke-width="2">
            <g id="Page-1" transform="translate(8.000000, 9.000000)">
                <path d="M47,27 L45,29 L47,31 L47,41.029 C44.439,41.188 40.703,41.625 37.525,42.831 C36.25,43.315 35.104,43.845 33.993,44.357 C31.036,45.724 28.481,47 24.258,47 C20.035,47 17.48,45.724 14.522,44.356 C13.413,43.845 12.266,43.313 10.992,42.831 C7.814,41.625 3.561,41.188 1,41.029 L1,33 L4,31 L1,29 L1,22 L3,20 L1,18 L1,9 L47,9 L47,27 Z" id="Stroke-1"></path>
                <path d="M48,3 L0,3" id="Stroke-3"></path>
                <path d="M8,0 L8,12" id="Stroke-5"></path>
                <path d="M40,0 L40,12" id="Stroke-7"></path>
                <path d="M15,23 L15,37 C15,37.553 15.448,38 16,38 L29,38 C29.552,38 30,37.553 30,37 L30,23" id="Stroke-9"></path>
                <path d="M20,23 L20,34" id="Stroke-11"></path>
                <path d="M25,23 L25,34" id="Stroke-13"></path>
                <path d="M35.4141,31.5859 L33.0001,33.9999 L30.0001,33.9999 L30.0001,24.9999 L34.0001,24.9999 C35.1041,24.9999 36.0001,25.8959 36.0001,26.9999 L36.0001,30.1719 C36.0001,30.7019 35.7891,31.2109 35.4141,31.5859 Z" id="Stroke-15"></path>
                <path d="M31,21 L31,19.722 C31,18.321 30.224,16.973 28.888,16.355 C27.154,15.553 25.41,16.263 24.64,16.987 C24.078,15.016 22.771,14 21,14 C18.375,14 17,15.396 17,17 C14.875,17 14,18.896 14,20 L14,21" id="Stroke-17" stroke-linejoin="round"></path>
            </g>
        </g>
    </g>
</svg>