<?xml version="1.0" encoding="UTF-8"?>
<svg width="64px" height="64px" viewBox="0 0 64 64" version="1.1" xmlns="http://www.w3.org/2000/svg" xmlns:xlink="http://www.w3.org/1999/xlink">
    <!-- Generator: Sketch 41.2 (35397) - http://www.bohemiancoding.com/sketch -->
    <title>Sun</title>
    <desc>Created with Sketch.</desc>
    <defs></defs>
    <g id="Page-1" stroke="none" stroke-width="1" fill="none" fill-rule="evenodd">
        <g id="Sun" stroke="#FFFFFF" stroke-width="2">
            <g id="Page-1" transform="translate(11.000000, 11.000000)">
                <path d="M0.376,17.5742 L2.629,19.4972 C2.573,20.0742 2.54,20.6582 2.54,21.2502 C2.54,21.8422 2.573,22.4252 2.629,23.0032 L0.376,24.9262 C-0.281,25.4862 -0.037,26.5542 0.799,26.7752 L3.678,27.5342 C4.083,28.6362 4.59,29.6832 5.19,30.6732 L3.988,33.3982 C3.64,34.1892 4.322,35.0462 5.171,34.8822 L8.088,34.3182 C8.926,35.1302 9.839,35.8592 10.819,36.4992 L10.919,39.4662 C10.947,40.3292 11.936,40.8042 12.628,40.2892 L15.009,38.5172 C16.103,38.8812 17.241,39.1382 18.415,39.2882 L19.796,41.9252 C20.196,42.6902 21.292,42.6902 21.693,41.9252 L23.073,39.2882 C24.247,39.1382 25.387,38.8812 26.48,38.5172 L28.86,40.2892 C29.554,40.8042 30.541,40.3292 30.569,39.4662 L30.669,36.4992 C31.649,35.8592 32.564,35.1302 33.4,34.3182 L36.317,34.8822 C37.166,35.0462 37.85,34.1892 37.5,33.3982 L36.298,30.6732 C36.898,29.6832 37.405,28.6362 37.812,27.5342 L40.69,26.7752 C41.525,26.5542 41.77,25.4862 41.112,24.9262 L38.86,23.0032 C38.915,22.4252 38.948,21.8422 38.948,21.2502 C38.948,20.6582 38.915,20.0742 38.86,19.4972 L41.112,17.5742 C41.77,17.0122 41.525,15.9442 40.69,15.7232 L37.812,14.9652 C37.405,13.8642 36.898,12.8152 36.298,11.8262 L37.5,9.1002 C37.85,8.3092 37.166,7.4532 36.317,7.6172 L33.4,8.1802 C32.564,7.3702 31.649,6.6392 30.669,6.0002 L30.569,3.0332 C30.541,2.1702 29.554,1.6942 28.86,2.2102 L26.48,3.9812 C25.387,3.6182 24.247,3.3612 23.073,3.2112 L21.693,0.5742 C21.292,-0.1918 20.196,-0.1918 19.796,0.5742 L18.415,3.2112 C17.241,3.3612 16.103,3.6182 15.009,3.9812 L12.628,2.2102 C11.936,1.6942 10.947,2.1702 10.919,3.0332 L10.819,6.0002 C9.839,6.6392 8.926,7.3702 8.088,8.1802 L5.171,7.6172 C4.322,7.4532 3.64,8.3092 3.988,9.1002 L5.19,11.8262 C4.59,12.8152 4.083,13.8642 3.678,14.9652 L0.799,15.7232 C-0.037,15.9442 -0.281,17.0122 0.376,17.5742 Z" id="Stroke-1"></path>
                <path d="M20.7441,7.499 C28.4761,7.499 34.7441,13.571 34.7441,21.062 C34.7441,23.618 34.0141,26.01 32.7451,28.051" id="Stroke-3"></path>
                <path d="M28.0645,32.625 C25.9345,33.893 23.4275,34.624 20.7445,34.624 C13.0125,34.624 6.7445,28.552 6.7445,21.062" id="Stroke-5"></path>
            </g>
        </g>
    </g>
</svg>