<?xml version="1.0" encoding="UTF-8"?>
<svg width="64px" height="64px" viewBox="0 0 64 64" version="1.1" xmlns="http://www.w3.org/2000/svg" xmlns:xlink="http://www.w3.org/1999/xlink">
    <!-- Generator: Sketch 41.2 (35397) - http://www.bohemiancoding.com/sketch -->
    <title>Tankard</title>
    <desc>Created with Sketch.</desc>
    <defs></defs>
    <g id="Page-1" stroke="none" stroke-width="1" fill="none" fill-rule="evenodd">
        <g id="Tankard" stroke="#FFFFFF" stroke-width="2">
            <g id="Page-1" transform="translate(13.000000, 10.000000)">
                <path d="M13.999,20 L13.999,35" id="Stroke-1"></path>
                <path d="M18.999,20 L18.999,35" id="Stroke-2"></path>
                <path d="M23.999,20 L23.999,35" id="Stroke-3"></path>
                <g id="Group-14">
                    <path d="M24.6416,3.2412 C23.6436,4.1282 23.3136,4.9332 23.0636,5.9822" id="Stroke-4"></path>
                    <path d="M4.999,7 C6.126,7 7.166,7.373 8.002,8.002" id="Stroke-6"></path>
                    <path d="M5.999,31 L5.999,38 L4.644,40.711 C4.259,41.48 4.41,42.411 5.019,43.02 L5.999,44 L29.999,44 L30.979,43.02 C31.589,42.411 31.739,41.48 31.354,40.711 L29.999,38 L29.999,36 L31.999,36 C32.575,36 33.127,35.771 33.534,35.364 L36.948,31.95 C38.262,30.637 38.999,28.856 38.999,27 L38.999,20 C38.999,18.343 37.656,17 35.999,17 L29.999,17 L29.999,13 C31.999,12.083 33.456,7.868 31.999,5 C31.177,3.382 28.374,1.5 24.679,3.25 C23.579,1.879 21.893,1 19.999,1 C18.43,1 17.005,1.607 15.936,2.594 C14.855,1.03 13.053,0.003 11.008,9.5805652e-16 C9.334,-0.002 4.437,0.938 4.999,7 C2.113,7.435 0,9.993 0,13 C0,15.22 0.999,17.158 2.999,18.196 L2.999,28 C2.999,29.657 4.342,31 5.999,31 C7.656,31 8.999,29.657 8.999,28 L8.999,18 C8.999,15.239 11.238,13 13.999,13 L29.999,13" id="Stroke-8"></path>
                    <path d="M27.999,40 L7.999,40" id="Stroke-10"></path>
                    <path d="M29.999,21 L29.999,32 L30.999,32 L34.413,28.586 C34.788,28.211 34.999,27.702 34.999,27.171 L34.999,22 C34.999,21.448 34.552,21 33.999,21 L29.999,21 Z" id="Stroke-12"></path>
                </g>
            </g>
        </g>
    </g>
</svg>